<?xml version="1.0" encoding="utf-8"?>
<!-- Generator: Adobe Illustrator 16.0.0, SVG Export Plug-In . SVG Version: 6.00 Build 0)  -->
<!DOCTYPE svg PUBLIC "-//W3C//DTD SVG 1.1//EN" "http://www.w3.org/Graphics/SVG/1.1/DTD/svg11.dtd">
<svg version="1.1" id="Layer_1" xmlns="http://www.w3.org/2000/svg" xmlns:xlink="http://www.w3.org/1999/xlink" x="0px" y="0px"
	 width="600px" height="700px" viewBox="0 0 589.926 589.926" enable-background="new 0 0 600 700"
	 xml:space="preserve">
	 <defs>
	    <filter id="f3" x="0" y="0" width="200%" height="200%">
	      <feOffset result="offOut" in="SourceAlpha" dx="20" dy="20" />
	      <feGaussianBlur result="blurOut" in="offOut" stdDeviation="10" />
	      <feBlend in="SourceGraphic" in2="blurOut" mode="normal" />
	    </filter>
	  </defs>
<g>
	<path fill="#fff" filter="url(#f3)" d="M590.923,557.022c0-32.819,0.01-65.649,0-98.47c-0.01-6.439-0.56-6.97-7.17-7.1
		c-1.67-0.03-3.33-0.01-5-0.01c-20.49,0-40.99,0.029-61.48-0.021c-4.979-0.01-5.369-0.479-4.1-5.19
		c3.42-12.75,5.42-25.689,6.53-38.859c2.43-28.93-1.23-56.84-12.851-83.55c-8.56-19.7-21.12-36.48-37.069-50.87
		c-10.351-9.34-21.79-17.09-34.271-24.49c20.88,0.01,41.03,0.01,61.19,0c9.22-0.01,9.479-0.49,9.8-9.46
		c0.29-8.2-0.9-16.29-1.18-24.44c-0.57-16.46-1.511-32.91-5.03-49.11c-6.91-31.79-20.83-60.05-42.6-84.22
		c-22.771-25.28-50.351-43.95-81.58-57.27c-26.69-11.38-54.4-18.84-83.36-21.54c-8.59-0.79-17.23-0.38-25.79-1.42h-5
		c-1.79,1.05-3.75,0.27-5.62,0.51h-10.92c-2.14-0.24-4.37,0.52-6.45-0.51h-6c-0.85,0.77-1.89,0.49-2.86,0.5
		c-12.15,0.16-24.23,0.98-36.23,3.16c-46.13,8.37-88.99,24.08-124.96,55.35c-17.87,15.53-31.58,34.27-41.63,55.59
		c-14.78,31.39-19.41,64.52-15.8,98.89c5.45,51.93,30.65,91.73,74.03,120.34c2.26,1.479,4.54,2.91,7.45,4.689
		c-28.52-0.01-56.18-0.02-83.83,0c-7.63,0.011-7.63,0.061-7.63,7.801v5c-0.11,8.319,0.65,16.609,0.53,24.939
		c-0.33,21.601,2.15,42.86,7.89,63.73c10.06,36.63,29.63,67.239,58.74,91.5c33.82,28.18,73.85,42.66,116.48,50.76
		c21.93,4.17,44.04,6.91,66.45,7.27c21.64,0.351,43.3,1.421,64.84-1.189c49.09-5.96,94.069-22.57,133.71-52.67
		c1.39-1.05,2.52-2.681,4.579-2.72c1.221,1.699,0.671,3.59,0.681,5.35c0.069,10.83-0.07,21.66,0.08,32.49
		c0.08,5.35,1.21,6.35,6.52,6.609c1.17,0.061,2.34,0.03,3.5,0.03h115.97c1.5,0,3-0.02,4.5-0.08c3.44-0.12,5.101-1.68,4.98-5.32
		C590.793,567.693,590.923,562.363,590.923,557.022z M127.483,71.873c12.99-6.89,26.85-11.39,40.8-15.64
		c5.94-1.8,12.23-2.48,18.4-3.44c2.83-0.44,1.57,1.93,1.47,3.03c-1.03,11.33-6.01,21.07-13.02,29.68
		c-10.41,12.8-24.25,20.69-39.45,26.66c-10.85,4.27-22.06,7.3-33.39,9.24c-7.86,1.34-15.85,3.78-24.63,2.38
		C88.133,100.013,105.323,83.633,127.483,71.873z M455.763,459.693c-13.05,23.229-32.899,39.729-55.46,53.029
		c-27.46,16.19-57.32,25.48-88.93,29.34c-26.4,3.23-52.77,2.17-79.16-0.04c-29.23-2.439-57.85-7.72-85.33-18.17
		c-24.09-9.17-45.69-22.22-63.14-41.59c-16.78-18.64-26.76-40.54-31.71-64.899c-1.75-8.61-2.88-17.301-3.28-26.11
		c-0.16-3.67,0.51-4.82,4.4-4.76c16,0.229,32,0.1,47.99,0.1c14.67-0.01,29.33,0.2,43.99-0.11c5.25-0.119,7.82,0.37,8.5,6.82
		c2.71,25.601,17.93,42.61,39.72,54.53c16.76,9.17,34.81,13.649,53.81,15.3c24.92,2.18,49.28,0.13,72.92-8.21
		c14.27-5.05,27.72-11.6,37.92-23.41c15.11-17.51,12.87-43.649-4.93-58.5c-15.091-12.58-32.91-19.42-51.58-23.92
		c-32.32-7.78-64.85-14.68-97.24-22.18c-21.92-5.08-44.28-8.97-65.25-17.15c-35.14-13.7-62.57-36.18-75.44-73.14
		c-6.77-19.41-7.87-39.42-5.72-59.77c1.21-11.41,4.12-22.3,8.04-33.01c0.95-2.6,2.09-3.65,5.17-4c33.59-3.75,66.57-9.79,95.64-28.64
		c19.37-12.57,32.82-29.49,37.82-52.51c1.89-8.71,2.04-8.74,11.13-9.63c22.06-2.16,44.07-2.59,66.21-0.31
		c30.97,3.2,60.59,10.75,88.22,25.25c31.04,16.28,57.06,37.92,72.59,70.23c8.01,16.68,12.42,34.34,13.359,52.86
		c0.15,2.9-0.29,3.98-3.6,3.97c-32.16-0.15-64.32-0.1-96.479-0.07c-2.15,0-3.681,0.01-4.021-2.93
		c-2.89-24.56-16.74-41.46-37.79-53.06c-15.22-8.37-31.61-12.71-48.92-14.29c-25.35-2.31-49.87,0.51-73.4,10.35
		c-10.99,4.6-20.87,11.04-27.79,20.95c-14.73,21.09-9.5,43.92,13.31,59.24c15.95,10.73,33.97,16.44,52.44,20.63
		c46.84,10.64,93.83,20.66,140.52,31.98c25.38,6.16,48.06,17.25,67.34,34.74c19.48,17.67,30.76,39.801,33.44,66.141
		C474.103,404.522,470.633,433.213,455.763,459.693z M556.843,540.413c0.021,2.859-0.899,3.6-3.68,3.59
		c-19.97-0.11-39.931-0.1-59.891,0c-2.54,0.01-3.409-0.55-3.39-3.271c0.13-17.13,0.13-34.27,0.01-51.399
		c-0.02-2.86,0.83-3.61,3.61-3.57c10.15,0.16,20.3,0.061,30.45,0.07c9.649,0,19.3,0.1,28.939-0.07c2.891-0.05,4.03,0.48,3.99,3.75
		C556.703,506.482,556.732,523.453,556.843,540.413z"/>
</g>
</svg>
