<?xml version="1.0" encoding="utf-8"?>
<!-- Generator: Adobe Illustrator 19.2.1, SVG Export Plug-In . SVG Version: 6.00 Build 0)  -->
<svg version="1.1" id="Layer_1" xmlns="http://www.w3.org/2000/svg" xmlns:xlink="http://www.w3.org/1999/xlink" x="0px" y="0px"
	 viewBox="0 0 100 100" style="enable-background:new 0 0 100 100;" xml:space="preserve">
<style type="text/css">
	.st0{fill:#27282E;}
</style>
<g>
	<g>
		<path class="st0" d="M66.2,38.3c0,3.8,0,7.4,0,11.2c-2.9,0-5.9,0-8.8,0c-0.3,0-0.6,0-1.2,0c0,0.3,0,0.6,0,0.9
			C56,51,56,51.5,56,52.1c0,10,0,20.3,0,30.3c-4.7,0-9.4,0-14.4,0c-0.3-0.3-0.3-0.6-0.3-0.9c0-10.6,0-20.9,0-31.5c0-0.3,0-0.6,0-0.6
			c0-0.3,0-0.3-0.3-0.3c-0.3,0-0.3,0-0.6,0c-2.4,0-5,0-7.4,0c-0.3,0-0.6,0-0.9-0.3c0-3.5,0-7.1,0-10.6C32.4,38,32.7,38,33,38
			c2.6,0,5.3,0,7.9,0c0.3,0,0.3,0,0.3-0.3c0-1.2,0-2.6,0-3.8c0-1.5,0-2.6,0.3-4.1c0-0.3,0-0.9,0.3-1.2c0.3-1.2,0.6-2.4,1.5-3.2
			c0.3-0.6,0.9-1.2,1.2-1.8c0.9-0.9,1.8-1.8,2.9-2.6c0.9-0.6,2.1-1.2,3.2-1.5c0.9-0.3,1.5-0.6,2.6-0.3c0,0,0,0,0-0.3
			c3.8,0,7.9,0,11.8,0c0,0,0,0.3,0.3,0.3c0.3,0,0.6,0,0.9,0c0,3.8,0,7.4,0,11.2c-2.1,0-3.8,0-5.9,0c-0.3,0-0.9,0-1.2,0.3
			c-0.9,0.3-1.8,0.9-2.4,2.1c-0.3,0.3-0.6,0.9-0.6,1.5C56,35.4,56,36.5,56,37.7c0,0.3,0.3,0.3,0.3,0.3c0.3,0,0.3,0,0.6,0
			C60.1,38.3,63.3,38.3,66.2,38.3z"/>
	</g>
</g>
</svg>
