<?xml version="1.0" encoding="utf-8"?>
<!-- Generator: Adobe Illustrator 19.2.1, SVG Export Plug-In . SVG Version: 6.00 Build 0)  -->
<svg version="1.1" id="Layer_1" xmlns="http://www.w3.org/2000/svg" xmlns:xlink="http://www.w3.org/1999/xlink" x="0px" y="0px"
	 viewBox="0 0 100 100" style="enable-background:new 0 0 100 100;" xml:space="preserve">
<style type="text/css">
	.st0{fill:#27282E;}
</style>
<polyline class="st0" points="20.5,79.6 20.5,35.4 34,35.4 34,79.6 20.5,79.6 "/>
<path class="st0" d="M34.5,23.2c0.1,3.8-2.7,6.9-7.3,6.9c-4.2,0-7-3.1-7-6.9c0-3.9,2.8-6.9,7.2-6.9S34.5,19.3,34.5,23.2"/>
<path class="st0" d="M69.9,79.6V55.1c0-5.7-1.9-9.6-6.9-9.6c-3.7,0-5.9,2.6-7,5.2c-0.3,0.9-0.4,2.2-0.4,3.5v25.4H42.2V49.6
	c0-5.5-0.2-10.1-0.3-14.1h11.7l0.6,6.2h0.2c1.8-3,6.2-7.2,13.5-7.2c8.9,0,15.6,6,15.6,19.1v26.1H69.9"/>
</svg>
