<?xml version="1.0" encoding="utf-8"?>
<!-- Generator: Adobe Illustrator 19.2.1, SVG Export Plug-In . SVG Version: 6.00 Build 0)  -->
<svg version="1.1" id="Layer_1" xmlns="http://www.w3.org/2000/svg" xmlns:xlink="http://www.w3.org/1999/xlink" x="0px" y="0px"
	 viewBox="0 0 100 100" style="enable-background:new 0 0 100 100;" xml:space="preserve">
<style type="text/css">
	.st0{fill:#27282E;}
</style>
<g>
	<path class="st0" d="M75.2,21.7c2.8,0.1,5.9,0.5,8.3,3.1c1.6,1.7,2.4,3.8,2.6,6.1c0.1,1.7,0.1,3.4,0.1,5.1c0,3.1-1.2,5.9-2.5,8.6
		c-3.3,7-8.1,13-13,18.9c-4.3,5.1-8.8,9.9-14.4,13.6c-3.2,2.1-6.6,3.8-10.7,3.6c-2.6-0.1-4.5-1.4-6-3.3c-2.3-2.8-3.9-6.1-4.9-9.6
		c-0.7-2.7-1.7-5.4-2.5-8.1c-0.8-2.8-1.6-5.6-2.4-8.3c-1-3.4-2-6.9-4-9.9c-0.6-1-1.6-1.8-2.5-2.4c-0.5-0.3-1.4-0.2-2,0
		c-1.3,0.6-2.5,1.4-3.8,2.2c-0.7,0.4-1.3,0.5-1.8-0.2c-0.7-0.9-1.5-1.7-2.2-2.7c-0.2-0.2-0.1-0.9,0.1-1.1
		c5.5-4.5,10.6-9.5,16.8-13.1c1.6-0.9,3.3-1.6,5.3-1.6c3.5,0,5.9,1.7,7.5,4.7c1.3,2.3,1.7,4.8,2.2,7.4c0.6,3.4,1.2,6.8,1.8,10.2
		c0.5,2.7,1.1,5.4,1.9,8c0.6,1.9,1.5,3.8,2.5,5.5c0.8,1.4,2,1.6,3.4,0.5c2.7-2.2,4.7-5,6.4-7.9c1.3-2.3,2.6-4.7,3.4-7.2
		c0.5-1.4,0.2-3.1-0.1-4.6c-0.3-1.5-1.8-2.1-3.2-2.1c-1.8,0-3.5,0.3-5.3,0.5c-0.4,0-0.7,0.1-1.1,0.1c0-0.4,0-0.9,0.2-1.3
		c0.7-1.5,1.4-3,2.2-4.5c1.9-3.5,4.6-6.3,8.3-8.1C68.6,22.4,71.6,21.8,75.2,21.7z"/>
</g>
</svg>
