<?xml version="1.0" encoding="utf-8"?>
<!-- Generator: Adobe Illustrator 19.2.1, SVG Export Plug-In . SVG Version: 6.00 Build 0)  -->
<svg version="1.1" id="Layer_1" xmlns="http://www.w3.org/2000/svg" xmlns:xlink="http://www.w3.org/1999/xlink" x="0px" y="0px"
	 viewBox="0 0 100 100" style="enable-background:new 0 0 100 100;" xml:space="preserve">
<style type="text/css">
	.st0{fill:#27282E;}
</style>
<path class="st0" d="M82.2,24.6c-1.4-0.4-3-0.6-4.5-0.7c-9.2-0.6-18.5-0.7-31.2-0.8c-3.8,0.1-11,0.2-18.1,0.5
	c-3.1,0.1-6.3,0.3-9.4,0.7c-3.7,0.5-6.5,2.6-7.9,6.1c-0.4,0.9-0.7,1.8-0.9,2.7c-0.8,3-1,6.2-1.1,9.3C8.8,49.9,8.7,57.4,9.4,65
	c0.2,2.5,0.6,5,1.4,7.4c1.2,3.4,3.5,5.6,7,6.4c1.7,0.4,3.4,0.7,5.1,0.8c6.2,0.3,12.4,0.6,18.5,0.6c7.9,0.1,15.7,0,23.6-0.1
	c4.7-0.1,9.4-0.3,14.1-0.7c4.7-0.4,8.1-2.7,9.7-7.3c0.9-2.5,1.2-5.1,1.4-7.7c0.6-8,0.5-15.9,0.1-23.9c-0.1-2.9-0.4-5.8-1.3-8.7
	C87.9,28.2,85.8,25.7,82.2,24.6z M63.2,52c-1.7,1-3.4,2.1-5,3.1c-5.4,3.3-10.7,6.5-16.1,9.8c-0.1,0-0.1,0.1-0.2,0.1
	c-0.7,0.4-0.7,0.4-0.7-0.5c0-4.3,0-8.6,0-12.9h0c0-4.3,0-8.5,0-12.8c0-1,0-1,0.8-0.6c7,4.3,14,8.6,21.1,12.9c0.1,0,0.1,0.1,0.2,0.1
	C63.7,51.6,63.7,51.7,63.2,52z"/>
</svg>
